<mxfile host="app.diagrams.net" agent="Mozilla/5.0 (Windows NT 10.0; Win64; x64) AppleWebKit/537.36 (KHTML, like Gecko) Chrome/136.0.0.0 Safari/537.36" version="27.0.4">
  <diagram name="Page-1" id="EnJg3W2mWr9zW0yvQbxy">
    <mxGraphModel dx="2339" dy="851" grid="1" gridSize="10" guides="1" tooltips="1" connect="1" arrows="1" fold="1" page="1" pageScale="1" pageWidth="850" pageHeight="1100" math="0" shadow="0">
      <root>
        <mxCell id="0" />
        <mxCell id="1" parent="0" />
        <mxCell id="ROSzv5lQwW57ZPVlKhAH-1" value="Equipamento" style="rounded=1;arcSize=10;whiteSpace=wrap;html=1;align=center;" parent="1" vertex="1">
          <mxGeometry x="90" y="640" width="100" height="40" as="geometry" />
        </mxCell>
        <mxCell id="ROSzv5lQwW57ZPVlKhAH-2" value="Habilidades" style="rounded=1;arcSize=10;whiteSpace=wrap;html=1;align=center;" parent="1" vertex="1">
          <mxGeometry x="670" y="145" width="100" height="40" as="geometry" />
        </mxCell>
        <mxCell id="ROSzv5lQwW57ZPVlKhAH-3" value="Poderes" style="rounded=1;arcSize=10;whiteSpace=wrap;html=1;align=center;" parent="1" vertex="1">
          <mxGeometry x="290" y="145" width="100" height="40" as="geometry" />
        </mxCell>
        <mxCell id="ROSzv5lQwW57ZPVlKhAH-4" value="Razas" style="rounded=1;arcSize=10;whiteSpace=wrap;html=1;align=center;" parent="1" vertex="1">
          <mxGeometry x="470" y="420" width="100" height="40" as="geometry" />
        </mxCell>
        <mxCell id="ROSzv5lQwW57ZPVlKhAH-5" value="Personaje" style="rounded=1;arcSize=10;whiteSpace=wrap;html=1;align=center;" parent="1" vertex="1">
          <mxGeometry x="470" y="640" width="100" height="40" as="geometry" />
        </mxCell>
        <mxCell id="ROSzv5lQwW57ZPVlKhAH-6" value="Usuario" style="rounded=1;arcSize=10;whiteSpace=wrap;html=1;align=center;" parent="1" vertex="1">
          <mxGeometry x="470" y="900" width="100" height="40" as="geometry" />
        </mxCell>
        <mxCell id="ROSzv5lQwW57ZPVlKhAH-7" value="Equipa" style="shape=rhombus;perimeter=rhombusPerimeter;whiteSpace=wrap;html=1;align=center;" parent="1" vertex="1">
          <mxGeometry x="270" y="630" width="120" height="60" as="geometry" />
        </mxCell>
        <mxCell id="ROSzv5lQwW57ZPVlKhAH-8" value="Posee" style="shape=rhombus;perimeter=rhombusPerimeter;whiteSpace=wrap;html=1;align=center;" parent="1" vertex="1">
          <mxGeometry x="280" y="280" width="120" height="60" as="geometry" />
        </mxCell>
        <mxCell id="ROSzv5lQwW57ZPVlKhAH-9" value="Posee" style="shape=rhombus;perimeter=rhombusPerimeter;whiteSpace=wrap;html=1;align=center;" parent="1" vertex="1">
          <mxGeometry x="660" y="280" width="120" height="60" as="geometry" />
        </mxCell>
        <mxCell id="ROSzv5lQwW57ZPVlKhAH-17" style="edgeStyle=orthogonalEdgeStyle;rounded=0;orthogonalLoop=1;jettySize=auto;html=1;entryX=0.5;entryY=1;entryDx=0;entryDy=0;" parent="1" source="ROSzv5lQwW57ZPVlKhAH-11" target="ROSzv5lQwW57ZPVlKhAH-6" edge="1">
          <mxGeometry relative="1" as="geometry" />
        </mxCell>
        <mxCell id="ROSzv5lQwW57ZPVlKhAH-11" value="Clave" style="ellipse;whiteSpace=wrap;html=1;align=center;" parent="1" vertex="1">
          <mxGeometry x="470" y="1040" width="100" height="40" as="geometry" />
        </mxCell>
        <mxCell id="ROSzv5lQwW57ZPVlKhAH-16" style="edgeStyle=orthogonalEdgeStyle;rounded=0;orthogonalLoop=1;jettySize=auto;html=1;entryX=0.25;entryY=1;entryDx=0;entryDy=0;" parent="1" source="ROSzv5lQwW57ZPVlKhAH-12" target="ROSzv5lQwW57ZPVlKhAH-6" edge="1">
          <mxGeometry relative="1" as="geometry" />
        </mxCell>
        <mxCell id="ROSzv5lQwW57ZPVlKhAH-12" value="Correo" style="ellipse;whiteSpace=wrap;html=1;align=center;" parent="1" vertex="1">
          <mxGeometry x="340" y="1000" width="100" height="40" as="geometry" />
        </mxCell>
        <mxCell id="ROSzv5lQwW57ZPVlKhAH-18" value="Tiene" style="shape=rhombus;perimeter=rhombusPerimeter;whiteSpace=wrap;html=1;align=center;" parent="1" vertex="1">
          <mxGeometry x="460" y="760" width="120" height="60" as="geometry" />
        </mxCell>
        <mxCell id="ROSzv5lQwW57ZPVlKhAH-19" value="Escoge" style="shape=rhombus;perimeter=rhombusPerimeter;whiteSpace=wrap;html=1;align=center;" parent="1" vertex="1">
          <mxGeometry x="460" y="510" width="120" height="60" as="geometry" />
        </mxCell>
        <mxCell id="ROSzv5lQwW57ZPVlKhAH-25" style="edgeStyle=orthogonalEdgeStyle;rounded=0;orthogonalLoop=1;jettySize=auto;html=1;entryX=1;entryY=0.5;entryDx=0;entryDy=0;" parent="1" source="ROSzv5lQwW57ZPVlKhAH-20" target="ROSzv5lQwW57ZPVlKhAH-5" edge="1">
          <mxGeometry relative="1" as="geometry">
            <Array as="points">
              <mxPoint x="750" y="630" />
              <mxPoint x="750" y="660" />
            </Array>
          </mxGeometry>
        </mxCell>
        <mxCell id="ROSzv5lQwW57ZPVlKhAH-20" value="Nivel" style="ellipse;whiteSpace=wrap;html=1;align=center;" parent="1" vertex="1">
          <mxGeometry x="840" y="610" width="100" height="40" as="geometry" />
        </mxCell>
        <mxCell id="ROSzv5lQwW57ZPVlKhAH-24" style="edgeStyle=orthogonalEdgeStyle;rounded=0;orthogonalLoop=1;jettySize=auto;html=1;entryX=1;entryY=0.75;entryDx=0;entryDy=0;" parent="1" source="ROSzv5lQwW57ZPVlKhAH-21" target="ROSzv5lQwW57ZPVlKhAH-5" edge="1">
          <mxGeometry relative="1" as="geometry" />
        </mxCell>
        <mxCell id="ROSzv5lQwW57ZPVlKhAH-21" value="Estadisticas" style="ellipse;whiteSpace=wrap;html=1;align=center;" parent="1" vertex="1">
          <mxGeometry x="870" y="660" width="100" height="40" as="geometry" />
        </mxCell>
        <mxCell id="ROSzv5lQwW57ZPVlKhAH-23" style="edgeStyle=orthogonalEdgeStyle;rounded=0;orthogonalLoop=1;jettySize=auto;html=1;entryX=1;entryY=0.25;entryDx=0;entryDy=0;" parent="1" source="ROSzv5lQwW57ZPVlKhAH-22" target="ROSzv5lQwW57ZPVlKhAH-5" edge="1">
          <mxGeometry relative="1" as="geometry" />
        </mxCell>
        <mxCell id="ROSzv5lQwW57ZPVlKhAH-22" value="Nombre" style="ellipse;whiteSpace=wrap;html=1;align=center;" parent="1" vertex="1">
          <mxGeometry x="850" y="560" width="100" height="40" as="geometry" />
        </mxCell>
        <mxCell id="ROSzv5lQwW57ZPVlKhAH-32" style="edgeStyle=orthogonalEdgeStyle;rounded=0;orthogonalLoop=1;jettySize=auto;html=1;entryX=0;entryY=0.5;entryDx=0;entryDy=0;exitX=0.5;exitY=1;exitDx=0;exitDy=0;" parent="1" source="ROSzv5lQwW57ZPVlKhAH-26" target="ROSzv5lQwW57ZPVlKhAH-3" edge="1">
          <mxGeometry relative="1" as="geometry" />
        </mxCell>
        <mxCell id="ROSzv5lQwW57ZPVlKhAH-26" value="Nombre" style="ellipse;whiteSpace=wrap;html=1;align=center;" parent="1" vertex="1">
          <mxGeometry x="170" y="55" width="100" height="40" as="geometry" />
        </mxCell>
        <mxCell id="ROSzv5lQwW57ZPVlKhAH-33" style="edgeStyle=orthogonalEdgeStyle;rounded=0;orthogonalLoop=1;jettySize=auto;html=1;entryX=0.5;entryY=0;entryDx=0;entryDy=0;" parent="1" source="ROSzv5lQwW57ZPVlKhAH-27" target="ROSzv5lQwW57ZPVlKhAH-3" edge="1">
          <mxGeometry relative="1" as="geometry" />
        </mxCell>
        <mxCell id="ROSzv5lQwW57ZPVlKhAH-27" value="Daño" style="ellipse;whiteSpace=wrap;html=1;align=center;" parent="1" vertex="1">
          <mxGeometry x="290" y="55" width="100" height="40" as="geometry" />
        </mxCell>
        <mxCell id="ROSzv5lQwW57ZPVlKhAH-34" style="edgeStyle=orthogonalEdgeStyle;rounded=0;orthogonalLoop=1;jettySize=auto;html=1;entryX=1;entryY=0.5;entryDx=0;entryDy=0;exitX=0.5;exitY=1;exitDx=0;exitDy=0;" parent="1" source="ROSzv5lQwW57ZPVlKhAH-28" target="ROSzv5lQwW57ZPVlKhAH-3" edge="1">
          <mxGeometry relative="1" as="geometry" />
        </mxCell>
        <mxCell id="ROSzv5lQwW57ZPVlKhAH-28" value="Descripcion" style="ellipse;whiteSpace=wrap;html=1;align=center;" parent="1" vertex="1">
          <mxGeometry x="410" y="55" width="100" height="40" as="geometry" />
        </mxCell>
        <mxCell id="ROSzv5lQwW57ZPVlKhAH-35" style="edgeStyle=orthogonalEdgeStyle;rounded=0;orthogonalLoop=1;jettySize=auto;html=1;entryX=0;entryY=0.5;entryDx=0;entryDy=0;exitX=0.5;exitY=1;exitDx=0;exitDy=0;" parent="1" source="ROSzv5lQwW57ZPVlKhAH-29" target="ROSzv5lQwW57ZPVlKhAH-2" edge="1">
          <mxGeometry relative="1" as="geometry" />
        </mxCell>
        <mxCell id="ROSzv5lQwW57ZPVlKhAH-29" value="Nombre" style="ellipse;whiteSpace=wrap;html=1;align=center;" parent="1" vertex="1">
          <mxGeometry x="550" y="55" width="100" height="40" as="geometry" />
        </mxCell>
        <mxCell id="ROSzv5lQwW57ZPVlKhAH-36" style="edgeStyle=orthogonalEdgeStyle;rounded=0;orthogonalLoop=1;jettySize=auto;html=1;entryX=0.5;entryY=0;entryDx=0;entryDy=0;" parent="1" source="ROSzv5lQwW57ZPVlKhAH-30" target="ROSzv5lQwW57ZPVlKhAH-2" edge="1">
          <mxGeometry relative="1" as="geometry" />
        </mxCell>
        <mxCell id="ROSzv5lQwW57ZPVlKhAH-30" value="Daño" style="ellipse;whiteSpace=wrap;html=1;align=center;" parent="1" vertex="1">
          <mxGeometry x="670" y="55" width="100" height="40" as="geometry" />
        </mxCell>
        <mxCell id="ROSzv5lQwW57ZPVlKhAH-37" style="edgeStyle=orthogonalEdgeStyle;rounded=0;orthogonalLoop=1;jettySize=auto;html=1;entryX=1;entryY=0.5;entryDx=0;entryDy=0;exitX=0.5;exitY=1;exitDx=0;exitDy=0;" parent="1" source="ROSzv5lQwW57ZPVlKhAH-31" target="ROSzv5lQwW57ZPVlKhAH-2" edge="1">
          <mxGeometry relative="1" as="geometry" />
        </mxCell>
        <mxCell id="ROSzv5lQwW57ZPVlKhAH-31" value="Descripcion" style="ellipse;whiteSpace=wrap;html=1;align=center;" parent="1" vertex="1">
          <mxGeometry x="790" y="55" width="100" height="40" as="geometry" />
        </mxCell>
        <mxCell id="ROSzv5lQwW57ZPVlKhAH-40" style="edgeStyle=orthogonalEdgeStyle;rounded=0;orthogonalLoop=1;jettySize=auto;html=1;entryX=0;entryY=0;entryDx=0;entryDy=0;" parent="1" source="ROSzv5lQwW57ZPVlKhAH-38" target="ROSzv5lQwW57ZPVlKhAH-4" edge="1">
          <mxGeometry relative="1" as="geometry">
            <Array as="points">
              <mxPoint x="450" y="420" />
            </Array>
          </mxGeometry>
        </mxCell>
        <mxCell id="ROSzv5lQwW57ZPVlKhAH-38" value="Nombre" style="ellipse;whiteSpace=wrap;html=1;align=center;" parent="1" vertex="1">
          <mxGeometry x="400" y="230" width="100" height="40" as="geometry" />
        </mxCell>
        <mxCell id="ROSzv5lQwW57ZPVlKhAH-41" style="edgeStyle=orthogonalEdgeStyle;rounded=0;orthogonalLoop=1;jettySize=auto;html=1;entryX=1;entryY=0;entryDx=0;entryDy=0;exitX=0.5;exitY=1;exitDx=0;exitDy=0;" parent="1" source="ROSzv5lQwW57ZPVlKhAH-39" target="ROSzv5lQwW57ZPVlKhAH-4" edge="1">
          <mxGeometry relative="1" as="geometry">
            <Array as="points">
              <mxPoint x="600" y="270" />
              <mxPoint x="600" y="420" />
            </Array>
          </mxGeometry>
        </mxCell>
        <mxCell id="ROSzv5lQwW57ZPVlKhAH-39" value="Descripcion" style="ellipse;whiteSpace=wrap;html=1;align=center;" parent="1" vertex="1">
          <mxGeometry x="550" y="230" width="100" height="40" as="geometry" />
        </mxCell>
        <mxCell id="ROSzv5lQwW57ZPVlKhAH-42" value="Rol" style="rounded=1;arcSize=10;whiteSpace=wrap;html=1;align=center;" parent="1" vertex="1">
          <mxGeometry x="280" y="900" width="100" height="40" as="geometry" />
        </mxCell>
        <mxCell id="ROSzv5lQwW57ZPVlKhAH-48" style="edgeStyle=orthogonalEdgeStyle;rounded=0;orthogonalLoop=1;jettySize=auto;html=1;entryX=0;entryY=0;entryDx=0;entryDy=0;" parent="1" source="ROSzv5lQwW57ZPVlKhAH-43" target="ROSzv5lQwW57ZPVlKhAH-1" edge="1">
          <mxGeometry relative="1" as="geometry" />
        </mxCell>
        <mxCell id="ROSzv5lQwW57ZPVlKhAH-43" value="Nombre" style="ellipse;whiteSpace=wrap;html=1;align=center;" parent="1" vertex="1">
          <mxGeometry x="-70" y="550" width="100" height="40" as="geometry" />
        </mxCell>
        <mxCell id="ROSzv5lQwW57ZPVlKhAH-47" style="edgeStyle=orthogonalEdgeStyle;rounded=0;orthogonalLoop=1;jettySize=auto;html=1;" parent="1" source="ROSzv5lQwW57ZPVlKhAH-44" target="ROSzv5lQwW57ZPVlKhAH-1" edge="1">
          <mxGeometry relative="1" as="geometry" />
        </mxCell>
        <mxCell id="ROSzv5lQwW57ZPVlKhAH-44" value="Tipo Equipamento" style="ellipse;whiteSpace=wrap;html=1;align=center;" parent="1" vertex="1">
          <mxGeometry x="-100" y="640" width="100" height="40" as="geometry" />
        </mxCell>
        <mxCell id="ROSzv5lQwW57ZPVlKhAH-49" style="edgeStyle=orthogonalEdgeStyle;rounded=0;orthogonalLoop=1;jettySize=auto;html=1;entryX=0;entryY=1;entryDx=0;entryDy=0;" parent="1" source="ROSzv5lQwW57ZPVlKhAH-45" target="ROSzv5lQwW57ZPVlKhAH-1" edge="1">
          <mxGeometry relative="1" as="geometry" />
        </mxCell>
        <mxCell id="ROSzv5lQwW57ZPVlKhAH-45" value="Estadisticas" style="ellipse;whiteSpace=wrap;html=1;align=center;" parent="1" vertex="1">
          <mxGeometry x="-70" y="735" width="100" height="40" as="geometry" />
        </mxCell>
        <mxCell id="ROSzv5lQwW57ZPVlKhAH-50" value="" style="endArrow=none;html=1;rounded=0;exitX=1;exitY=0.5;exitDx=0;exitDy=0;entryX=0;entryY=0.5;entryDx=0;entryDy=0;" parent="1" source="ROSzv5lQwW57ZPVlKhAH-1" target="ROSzv5lQwW57ZPVlKhAH-7" edge="1">
          <mxGeometry relative="1" as="geometry">
            <mxPoint x="200" y="650" as="sourcePoint" />
            <mxPoint x="360" y="650" as="targetPoint" />
          </mxGeometry>
        </mxCell>
        <mxCell id="ROSzv5lQwW57ZPVlKhAH-51" value="" style="endArrow=none;html=1;rounded=0;exitX=1;exitY=0.5;exitDx=0;exitDy=0;entryX=0;entryY=0.5;entryDx=0;entryDy=0;" parent="1" source="ROSzv5lQwW57ZPVlKhAH-7" target="ROSzv5lQwW57ZPVlKhAH-5" edge="1">
          <mxGeometry relative="1" as="geometry">
            <mxPoint x="330" y="710" as="sourcePoint" />
            <mxPoint x="410" y="710" as="targetPoint" />
          </mxGeometry>
        </mxCell>
        <mxCell id="ROSzv5lQwW57ZPVlKhAH-53" value="(N,M)" style="text;strokeColor=none;fillColor=none;spacingLeft=4;spacingRight=4;overflow=hidden;rotatable=0;points=[[0,0.5],[1,0.5]];portConstraint=eastwest;fontSize=12;whiteSpace=wrap;html=1;" parent="1" vertex="1">
          <mxGeometry x="310" y="600" width="40" height="30" as="geometry" />
        </mxCell>
        <mxCell id="ROSzv5lQwW57ZPVlKhAH-54" value="(1,N)" style="text;strokeColor=none;fillColor=none;spacingLeft=4;spacingRight=4;overflow=hidden;rotatable=0;points=[[0,0.5],[1,0.5]];portConstraint=eastwest;fontSize=12;whiteSpace=wrap;html=1;" parent="1" vertex="1">
          <mxGeometry x="190" y="620" width="40" height="30" as="geometry" />
        </mxCell>
        <mxCell id="ROSzv5lQwW57ZPVlKhAH-55" value="(M,1)" style="text;strokeColor=none;fillColor=none;spacingLeft=4;spacingRight=4;overflow=hidden;rotatable=0;points=[[0,0.5],[1,0.5]];portConstraint=eastwest;fontSize=12;whiteSpace=wrap;html=1;" parent="1" vertex="1">
          <mxGeometry x="430" y="620" width="40" height="30" as="geometry" />
        </mxCell>
        <mxCell id="ROSzv5lQwW57ZPVlKhAH-56" value="" style="endArrow=none;html=1;rounded=0;exitX=1;exitY=0.5;exitDx=0;exitDy=0;entryX=0;entryY=0.5;entryDx=0;entryDy=0;" parent="1" source="ROSzv5lQwW57ZPVlKhAH-42" target="ROSzv5lQwW57ZPVlKhAH-6" edge="1">
          <mxGeometry relative="1" as="geometry">
            <mxPoint x="395" y="919.41" as="sourcePoint" />
            <mxPoint x="475" y="919.41" as="targetPoint" />
          </mxGeometry>
        </mxCell>
        <mxCell id="ROSzv5lQwW57ZPVlKhAH-57" value="(1,1)" style="text;strokeColor=none;fillColor=none;spacingLeft=4;spacingRight=4;overflow=hidden;rotatable=0;points=[[0,0.5],[1,0.5]];portConstraint=eastwest;fontSize=12;whiteSpace=wrap;html=1;" parent="1" vertex="1">
          <mxGeometry x="405" y="890" width="40" height="30" as="geometry" />
        </mxCell>
        <mxCell id="ROSzv5lQwW57ZPVlKhAH-59" value="" style="endArrow=none;html=1;rounded=0;exitX=0.5;exitY=0;exitDx=0;exitDy=0;entryX=0.5;entryY=1;entryDx=0;entryDy=0;" parent="1" source="ROSzv5lQwW57ZPVlKhAH-6" target="ROSzv5lQwW57ZPVlKhAH-18" edge="1">
          <mxGeometry relative="1" as="geometry">
            <mxPoint x="510" y="870" as="sourcePoint" />
            <mxPoint x="605" y="870" as="targetPoint" />
          </mxGeometry>
        </mxCell>
        <mxCell id="ROSzv5lQwW57ZPVlKhAH-60" value="(1,M)" style="text;strokeColor=none;fillColor=none;spacingLeft=4;spacingRight=4;overflow=hidden;rotatable=0;points=[[0,0.5],[1,0.5]];portConstraint=eastwest;fontSize=12;whiteSpace=wrap;html=1;" parent="1" vertex="1">
          <mxGeometry x="520" y="870" width="40" height="30" as="geometry" />
        </mxCell>
        <mxCell id="ROSzv5lQwW57ZPVlKhAH-61" value="(M,1)" style="text;strokeColor=none;fillColor=none;spacingLeft=4;spacingRight=4;overflow=hidden;rotatable=0;points=[[0,0.5],[1,0.5]];portConstraint=eastwest;fontSize=12;whiteSpace=wrap;html=1;" parent="1" vertex="1">
          <mxGeometry x="590" y="775" width="40" height="30" as="geometry" />
        </mxCell>
        <mxCell id="ROSzv5lQwW57ZPVlKhAH-62" value="" style="endArrow=none;html=1;rounded=0;exitX=0.5;exitY=0;exitDx=0;exitDy=0;entryX=0.5;entryY=1;entryDx=0;entryDy=0;" parent="1" source="ROSzv5lQwW57ZPVlKhAH-18" target="ROSzv5lQwW57ZPVlKhAH-5" edge="1">
          <mxGeometry relative="1" as="geometry">
            <mxPoint x="530" y="910" as="sourcePoint" />
            <mxPoint x="530" y="830" as="targetPoint" />
          </mxGeometry>
        </mxCell>
        <mxCell id="ROSzv5lQwW57ZPVlKhAH-63" value="" style="endArrow=none;html=1;rounded=0;exitX=0.5;exitY=0;exitDx=0;exitDy=0;entryX=0.5;entryY=1;entryDx=0;entryDy=0;" parent="1" source="ROSzv5lQwW57ZPVlKhAH-5" target="ROSzv5lQwW57ZPVlKhAH-19" edge="1">
          <mxGeometry relative="1" as="geometry">
            <mxPoint x="530" y="770" as="sourcePoint" />
            <mxPoint x="530" y="690" as="targetPoint" />
          </mxGeometry>
        </mxCell>
        <mxCell id="ROSzv5lQwW57ZPVlKhAH-66" value="" style="endArrow=none;html=1;rounded=0;exitX=0.5;exitY=0;exitDx=0;exitDy=0;entryX=0.5;entryY=1;entryDx=0;entryDy=0;" parent="1" source="ROSzv5lQwW57ZPVlKhAH-19" target="ROSzv5lQwW57ZPVlKhAH-4" edge="1">
          <mxGeometry relative="1" as="geometry">
            <mxPoint x="530" y="650" as="sourcePoint" />
            <mxPoint x="530" y="580" as="targetPoint" />
          </mxGeometry>
        </mxCell>
        <mxCell id="ROSzv5lQwW57ZPVlKhAH-67" value="" style="endArrow=none;html=1;rounded=0;exitX=0;exitY=0.5;exitDx=0;exitDy=0;entryX=0.5;entryY=1;entryDx=0;entryDy=0;" parent="1" source="ROSzv5lQwW57ZPVlKhAH-4" target="ROSzv5lQwW57ZPVlKhAH-8" edge="1">
          <mxGeometry relative="1" as="geometry">
            <mxPoint x="530" y="650" as="sourcePoint" />
            <mxPoint x="530" y="580" as="targetPoint" />
            <Array as="points">
              <mxPoint x="340" y="440" />
            </Array>
          </mxGeometry>
        </mxCell>
        <mxCell id="ROSzv5lQwW57ZPVlKhAH-71" value="" style="endArrow=none;html=1;rounded=0;entryX=0.5;entryY=1;entryDx=0;entryDy=0;exitX=0.5;exitY=0;exitDx=0;exitDy=0;" parent="1" source="ROSzv5lQwW57ZPVlKhAH-8" target="ROSzv5lQwW57ZPVlKhAH-3" edge="1">
          <mxGeometry relative="1" as="geometry">
            <mxPoint x="490" y="410" as="sourcePoint" />
            <mxPoint x="650" y="410" as="targetPoint" />
          </mxGeometry>
        </mxCell>
        <mxCell id="ROSzv5lQwW57ZPVlKhAH-72" value="" style="endArrow=none;html=1;rounded=0;entryX=0.5;entryY=1;entryDx=0;entryDy=0;exitX=0.5;exitY=0;exitDx=0;exitDy=0;" parent="1" source="ROSzv5lQwW57ZPVlKhAH-9" target="ROSzv5lQwW57ZPVlKhAH-2" edge="1">
          <mxGeometry relative="1" as="geometry">
            <mxPoint x="350" y="365" as="sourcePoint" />
            <mxPoint x="350" y="240" as="targetPoint" />
          </mxGeometry>
        </mxCell>
        <mxCell id="ROSzv5lQwW57ZPVlKhAH-73" value="" style="endArrow=none;html=1;rounded=0;entryX=0.5;entryY=1;entryDx=0;entryDy=0;exitX=1;exitY=0.5;exitDx=0;exitDy=0;" parent="1" source="ROSzv5lQwW57ZPVlKhAH-4" target="ROSzv5lQwW57ZPVlKhAH-9" edge="1">
          <mxGeometry relative="1" as="geometry">
            <mxPoint x="630" y="525" as="sourcePoint" />
            <mxPoint x="630" y="400" as="targetPoint" />
            <Array as="points">
              <mxPoint x="720" y="440" />
            </Array>
          </mxGeometry>
        </mxCell>
        <mxCell id="ROSzv5lQwW57ZPVlKhAH-75" value="(M,N)" style="text;strokeColor=none;fillColor=none;spacingLeft=4;spacingRight=4;overflow=hidden;rotatable=0;points=[[0,0.5],[1,0.5]];portConstraint=eastwest;fontSize=12;whiteSpace=wrap;html=1;" parent="1" vertex="1">
          <mxGeometry x="730" y="340" width="40" height="30" as="geometry" />
        </mxCell>
        <mxCell id="ROSzv5lQwW57ZPVlKhAH-76" value="(1,N)" style="text;strokeColor=none;fillColor=none;spacingLeft=4;spacingRight=4;overflow=hidden;rotatable=0;points=[[0,0.5],[1,0.5]];portConstraint=eastwest;fontSize=12;whiteSpace=wrap;html=1;" parent="1" vertex="1">
          <mxGeometry x="570" y="415" width="40" height="30" as="geometry" />
        </mxCell>
        <mxCell id="ROSzv5lQwW57ZPVlKhAH-77" value="(1,M)" style="text;strokeColor=none;fillColor=none;spacingLeft=4;spacingRight=4;overflow=hidden;rotatable=0;points=[[0,0.5],[1,0.5]];portConstraint=eastwest;fontSize=12;whiteSpace=wrap;html=1;" parent="1" vertex="1">
          <mxGeometry x="360" y="185" width="40" height="30" as="geometry" />
        </mxCell>
        <mxCell id="ROSzv5lQwW57ZPVlKhAH-79" value="(1,M)" style="text;strokeColor=none;fillColor=none;spacingLeft=4;spacingRight=4;overflow=hidden;rotatable=0;points=[[0,0.5],[1,0.5]];portConstraint=eastwest;fontSize=12;whiteSpace=wrap;html=1;" parent="1" vertex="1">
          <mxGeometry x="480" y="680" width="40" height="30" as="geometry" />
        </mxCell>
        <mxCell id="ROSzv5lQwW57ZPVlKhAH-80" value="(M,1)" style="text;strokeColor=none;fillColor=none;spacingLeft=4;spacingRight=4;overflow=hidden;rotatable=0;points=[[0,0.5],[1,0.5]];portConstraint=eastwest;fontSize=12;whiteSpace=wrap;html=1;" parent="1" vertex="1">
          <mxGeometry x="520" y="620" width="40" height="30" as="geometry" />
        </mxCell>
        <mxCell id="ROSzv5lQwW57ZPVlKhAH-81" value="(1,M)" style="text;strokeColor=none;fillColor=none;spacingLeft=4;spacingRight=4;overflow=hidden;rotatable=0;points=[[0,0.5],[1,0.5]];portConstraint=eastwest;fontSize=12;whiteSpace=wrap;html=1;" parent="1" vertex="1">
          <mxGeometry x="590" y="525" width="40" height="30" as="geometry" />
        </mxCell>
        <mxCell id="ROSzv5lQwW57ZPVlKhAH-82" value="(1,M)" style="text;strokeColor=none;fillColor=none;spacingLeft=4;spacingRight=4;overflow=hidden;rotatable=0;points=[[0,0.5],[1,0.5]];portConstraint=eastwest;fontSize=12;whiteSpace=wrap;html=1;" parent="1" vertex="1">
          <mxGeometry x="520" y="460" width="40" height="30" as="geometry" />
        </mxCell>
        <mxCell id="ROSzv5lQwW57ZPVlKhAH-83" value="(M,N)" style="text;strokeColor=none;fillColor=none;spacingLeft=4;spacingRight=4;overflow=hidden;rotatable=0;points=[[0,0.5],[1,0.5]];portConstraint=eastwest;fontSize=12;whiteSpace=wrap;html=1;" parent="1" vertex="1">
          <mxGeometry x="300" y="340" width="40" height="30" as="geometry" />
        </mxCell>
        <mxCell id="ROSzv5lQwW57ZPVlKhAH-84" value="(1,N)" style="text;strokeColor=none;fillColor=none;spacingLeft=4;spacingRight=4;overflow=hidden;rotatable=0;points=[[0,0.5],[1,0.5]];portConstraint=eastwest;fontSize=12;whiteSpace=wrap;html=1;" parent="1" vertex="1">
          <mxGeometry x="425" y="415" width="40" height="30" as="geometry" />
        </mxCell>
        <mxCell id="ROSzv5lQwW57ZPVlKhAH-85" value="(1,M)" style="text;strokeColor=none;fillColor=none;spacingLeft=4;spacingRight=4;overflow=hidden;rotatable=0;points=[[0,0.5],[1,0.5]];portConstraint=eastwest;fontSize=12;whiteSpace=wrap;html=1;" parent="1" vertex="1">
          <mxGeometry x="740" y="185" width="40" height="30" as="geometry" />
        </mxCell>
        <mxCell id="WYeFFCUCITrk3IJIaOln-1" style="edgeStyle=orthogonalEdgeStyle;rounded=0;orthogonalLoop=1;jettySize=auto;html=1;entryX=0;entryY=0.25;entryDx=0;entryDy=0;" parent="1" source="ROSzv5lQwW57ZPVlKhAH-86" target="ROSzv5lQwW57ZPVlKhAH-42" edge="1">
          <mxGeometry relative="1" as="geometry" />
        </mxCell>
        <mxCell id="ROSzv5lQwW57ZPVlKhAH-86" value="id_rol" style="ellipse;whiteSpace=wrap;html=1;align=center;" parent="1" vertex="1">
          <mxGeometry x="140" y="870" width="100" height="40" as="geometry" />
        </mxCell>
        <mxCell id="WYeFFCUCITrk3IJIaOln-2" style="edgeStyle=orthogonalEdgeStyle;rounded=0;orthogonalLoop=1;jettySize=auto;html=1;entryX=0;entryY=0.75;entryDx=0;entryDy=0;" parent="1" source="ROSzv5lQwW57ZPVlKhAH-87" target="ROSzv5lQwW57ZPVlKhAH-42" edge="1">
          <mxGeometry relative="1" as="geometry" />
        </mxCell>
        <mxCell id="ROSzv5lQwW57ZPVlKhAH-87" value="nombre_rol" style="ellipse;whiteSpace=wrap;html=1;align=center;" parent="1" vertex="1">
          <mxGeometry x="140" y="930" width="100" height="40" as="geometry" />
        </mxCell>
        <mxCell id="ROSzv5lQwW57ZPVlKhAH-90" style="edgeStyle=orthogonalEdgeStyle;rounded=0;orthogonalLoop=1;jettySize=auto;html=1;entryX=1;entryY=0.5;entryDx=0;entryDy=0;" parent="1" source="ROSzv5lQwW57ZPVlKhAH-88" target="ROSzv5lQwW57ZPVlKhAH-6" edge="1">
          <mxGeometry relative="1" as="geometry" />
        </mxCell>
        <mxCell id="ROSzv5lQwW57ZPVlKhAH-88" value="id_usuario" style="ellipse;whiteSpace=wrap;html=1;align=center;" parent="1" vertex="1">
          <mxGeometry x="640" y="900" width="100" height="40" as="geometry" />
        </mxCell>
        <mxCell id="ROSzv5lQwW57ZPVlKhAH-91" style="edgeStyle=orthogonalEdgeStyle;rounded=0;orthogonalLoop=1;jettySize=auto;html=1;entryX=0.75;entryY=1;entryDx=0;entryDy=0;" parent="1" source="ROSzv5lQwW57ZPVlKhAH-89" target="ROSzv5lQwW57ZPVlKhAH-6" edge="1">
          <mxGeometry relative="1" as="geometry" />
        </mxCell>
        <mxCell id="ROSzv5lQwW57ZPVlKhAH-89" value="id_rol" style="ellipse;whiteSpace=wrap;html=1;align=center;" parent="1" vertex="1">
          <mxGeometry x="630" y="1000" width="100" height="40" as="geometry" />
        </mxCell>
        <mxCell id="ROSzv5lQwW57ZPVlKhAH-94" style="edgeStyle=orthogonalEdgeStyle;rounded=0;orthogonalLoop=1;jettySize=auto;html=1;entryX=1;entryY=1;entryDx=0;entryDy=0;exitX=0;exitY=0.5;exitDx=0;exitDy=0;" parent="1" source="ROSzv5lQwW57ZPVlKhAH-93" target="ROSzv5lQwW57ZPVlKhAH-5" edge="1">
          <mxGeometry relative="1" as="geometry">
            <Array as="points">
              <mxPoint x="700" y="730" />
              <mxPoint x="700" y="680" />
            </Array>
          </mxGeometry>
        </mxCell>
        <mxCell id="ROSzv5lQwW57ZPVlKhAH-93" value="id_usuario" style="ellipse;whiteSpace=wrap;html=1;align=center;" parent="1" vertex="1">
          <mxGeometry x="820" y="710" width="100" height="40" as="geometry" />
        </mxCell>
        <mxCell id="ROSzv5lQwW57ZPVlKhAH-96" style="edgeStyle=orthogonalEdgeStyle;rounded=0;orthogonalLoop=1;jettySize=auto;html=1;entryX=1;entryY=0;entryDx=0;entryDy=0;" parent="1" source="ROSzv5lQwW57ZPVlKhAH-95" target="ROSzv5lQwW57ZPVlKhAH-5" edge="1">
          <mxGeometry relative="1" as="geometry">
            <Array as="points">
              <mxPoint x="620" y="560" />
              <mxPoint x="620" y="640" />
            </Array>
          </mxGeometry>
        </mxCell>
        <mxCell id="ROSzv5lQwW57ZPVlKhAH-95" value="id_raza" style="ellipse;whiteSpace=wrap;html=1;align=center;" parent="1" vertex="1">
          <mxGeometry x="770" y="520" width="100" height="40" as="geometry" />
        </mxCell>
        <mxCell id="ROSzv5lQwW57ZPVlKhAH-98" style="edgeStyle=orthogonalEdgeStyle;rounded=0;orthogonalLoop=1;jettySize=auto;html=1;entryX=0.5;entryY=0;entryDx=0;entryDy=0;" parent="1" source="ROSzv5lQwW57ZPVlKhAH-97" target="ROSzv5lQwW57ZPVlKhAH-4" edge="1">
          <mxGeometry relative="1" as="geometry" />
        </mxCell>
        <mxCell id="ROSzv5lQwW57ZPVlKhAH-97" value="id_raza" style="ellipse;whiteSpace=wrap;html=1;align=center;" parent="1" vertex="1">
          <mxGeometry x="470" y="290" width="100" height="40" as="geometry" />
        </mxCell>
        <mxCell id="ROSzv5lQwW57ZPVlKhAH-103" style="edgeStyle=orthogonalEdgeStyle;rounded=0;orthogonalLoop=1;jettySize=auto;html=1;entryX=0;entryY=0.75;entryDx=0;entryDy=0;" parent="1" source="ROSzv5lQwW57ZPVlKhAH-99" target="ROSzv5lQwW57ZPVlKhAH-3" edge="1">
          <mxGeometry relative="1" as="geometry">
            <Array as="points">
              <mxPoint x="120" y="175" />
            </Array>
          </mxGeometry>
        </mxCell>
        <mxCell id="ROSzv5lQwW57ZPVlKhAH-99" value="id_poderes" style="ellipse;whiteSpace=wrap;html=1;align=center;" parent="1" vertex="1">
          <mxGeometry x="70" y="110" width="100" height="40" as="geometry" />
        </mxCell>
        <mxCell id="ROSzv5lQwW57ZPVlKhAH-101" style="edgeStyle=orthogonalEdgeStyle;rounded=0;orthogonalLoop=1;jettySize=auto;html=1;entryX=1;entryY=0.75;entryDx=0;entryDy=0;" parent="1" source="ROSzv5lQwW57ZPVlKhAH-100" target="ROSzv5lQwW57ZPVlKhAH-2" edge="1">
          <mxGeometry relative="1" as="geometry">
            <mxPoint x="840" y="180" as="targetPoint" />
            <Array as="points">
              <mxPoint x="960" y="175" />
            </Array>
          </mxGeometry>
        </mxCell>
        <mxCell id="ROSzv5lQwW57ZPVlKhAH-100" value="id_habilidades" style="ellipse;whiteSpace=wrap;html=1;align=center;" parent="1" vertex="1">
          <mxGeometry x="900" y="110" width="100" height="40" as="geometry" />
        </mxCell>
        <mxCell id="ROSzv5lQwW57ZPVlKhAH-111" style="edgeStyle=orthogonalEdgeStyle;rounded=0;orthogonalLoop=1;jettySize=auto;html=1;entryX=0;entryY=1;entryDx=0;entryDy=0;" parent="1" source="ROSzv5lQwW57ZPVlKhAH-104" target="ROSzv5lQwW57ZPVlKhAH-8" edge="1">
          <mxGeometry relative="1" as="geometry" />
        </mxCell>
        <mxCell id="ROSzv5lQwW57ZPVlKhAH-104" value="id_raza" style="ellipse;whiteSpace=wrap;html=1;align=center;" parent="1" vertex="1">
          <mxGeometry x="130" y="330" width="100" height="40" as="geometry" />
        </mxCell>
        <mxCell id="ROSzv5lQwW57ZPVlKhAH-110" style="edgeStyle=orthogonalEdgeStyle;rounded=0;orthogonalLoop=1;jettySize=auto;html=1;entryX=0;entryY=0;entryDx=0;entryDy=0;" parent="1" source="ROSzv5lQwW57ZPVlKhAH-105" target="ROSzv5lQwW57ZPVlKhAH-8" edge="1">
          <mxGeometry relative="1" as="geometry" />
        </mxCell>
        <mxCell id="ROSzv5lQwW57ZPVlKhAH-105" value="id_poderes" style="ellipse;whiteSpace=wrap;html=1;align=center;" parent="1" vertex="1">
          <mxGeometry x="130" y="250" width="100" height="40" as="geometry" />
        </mxCell>
        <mxCell id="ROSzv5lQwW57ZPVlKhAH-109" style="edgeStyle=orthogonalEdgeStyle;rounded=0;orthogonalLoop=1;jettySize=auto;html=1;entryX=1;entryY=1;entryDx=0;entryDy=0;" parent="1" source="ROSzv5lQwW57ZPVlKhAH-106" target="ROSzv5lQwW57ZPVlKhAH-9" edge="1">
          <mxGeometry relative="1" as="geometry" />
        </mxCell>
        <mxCell id="ROSzv5lQwW57ZPVlKhAH-106" value="id_raza" style="ellipse;whiteSpace=wrap;html=1;align=center;" parent="1" vertex="1">
          <mxGeometry x="840" y="320" width="100" height="40" as="geometry" />
        </mxCell>
        <mxCell id="ROSzv5lQwW57ZPVlKhAH-108" style="edgeStyle=orthogonalEdgeStyle;rounded=0;orthogonalLoop=1;jettySize=auto;html=1;entryX=1;entryY=0;entryDx=0;entryDy=0;" parent="1" source="ROSzv5lQwW57ZPVlKhAH-107" target="ROSzv5lQwW57ZPVlKhAH-9" edge="1">
          <mxGeometry relative="1" as="geometry" />
        </mxCell>
        <mxCell id="ROSzv5lQwW57ZPVlKhAH-107" value="id_habilidades" style="ellipse;whiteSpace=wrap;html=1;align=center;" parent="1" vertex="1">
          <mxGeometry x="840" y="260" width="100" height="40" as="geometry" />
        </mxCell>
        <mxCell id="ROSzv5lQwW57ZPVlKhAH-113" style="edgeStyle=orthogonalEdgeStyle;rounded=0;orthogonalLoop=1;jettySize=auto;html=1;entryX=0.75;entryY=1;entryDx=0;entryDy=0;exitX=0;exitY=0;exitDx=0;exitDy=0;" parent="1" source="ROSzv5lQwW57ZPVlKhAH-112" target="ROSzv5lQwW57ZPVlKhAH-5" edge="1">
          <mxGeometry relative="1" as="geometry">
            <Array as="points">
              <mxPoint x="815" y="760" />
              <mxPoint x="650" y="760" />
              <mxPoint x="650" y="720" />
              <mxPoint x="545" y="720" />
            </Array>
          </mxGeometry>
        </mxCell>
        <mxCell id="ROSzv5lQwW57ZPVlKhAH-112" value="id_personaje" style="ellipse;whiteSpace=wrap;html=1;align=center;" parent="1" vertex="1">
          <mxGeometry x="800" y="760" width="100" height="40" as="geometry" />
        </mxCell>
        <mxCell id="ROSzv5lQwW57ZPVlKhAH-116" style="edgeStyle=orthogonalEdgeStyle;rounded=0;orthogonalLoop=1;jettySize=auto;html=1;entryX=0.5;entryY=0;entryDx=0;entryDy=0;" parent="1" source="ROSzv5lQwW57ZPVlKhAH-115" target="ROSzv5lQwW57ZPVlKhAH-1" edge="1">
          <mxGeometry relative="1" as="geometry" />
        </mxCell>
        <mxCell id="ROSzv5lQwW57ZPVlKhAH-115" value="id_equipamento" style="ellipse;whiteSpace=wrap;html=1;align=center;" parent="1" vertex="1">
          <mxGeometry x="90" y="455" width="100" height="40" as="geometry" />
        </mxCell>
        <mxCell id="ROSzv5lQwW57ZPVlKhAH-118" style="edgeStyle=orthogonalEdgeStyle;rounded=0;orthogonalLoop=1;jettySize=auto;html=1;entryX=0;entryY=1;entryDx=0;entryDy=0;" parent="1" source="ROSzv5lQwW57ZPVlKhAH-117" target="ROSzv5lQwW57ZPVlKhAH-7" edge="1">
          <mxGeometry relative="1" as="geometry" />
        </mxCell>
        <mxCell id="ROSzv5lQwW57ZPVlKhAH-117" value="id_equipamento" style="ellipse;whiteSpace=wrap;html=1;align=center;" parent="1" vertex="1">
          <mxGeometry x="210" y="735" width="100" height="40" as="geometry" />
        </mxCell>
        <mxCell id="ROSzv5lQwW57ZPVlKhAH-120" style="edgeStyle=orthogonalEdgeStyle;rounded=0;orthogonalLoop=1;jettySize=auto;html=1;entryX=1;entryY=1;entryDx=0;entryDy=0;" parent="1" source="ROSzv5lQwW57ZPVlKhAH-119" target="ROSzv5lQwW57ZPVlKhAH-7" edge="1">
          <mxGeometry relative="1" as="geometry" />
        </mxCell>
        <mxCell id="ROSzv5lQwW57ZPVlKhAH-119" value="id_personaje" style="ellipse;whiteSpace=wrap;html=1;align=center;" parent="1" vertex="1">
          <mxGeometry x="350" y="735" width="100" height="40" as="geometry" />
        </mxCell>
      </root>
    </mxGraphModel>
  </diagram>
</mxfile>
